<svg width="240" height="45" viewBox="0 0 240 45" fill="none" xmlns="http://www.w3.org/2000/svg">
  <defs>
    <style>
      @import url('https://fonts.googleapis.com/css2?family=Rajdhani:wght@700&amp;display=swap');
    </style>
  </defs>
  
  <!-- W -->
  <path d="M 8 10 L 12 30 L 16 10 L 20 30 L 24 10" stroke="white" stroke-width="2.5" fill="none" stroke-linecap="square"/>
  
  <!-- E -->
  <path d="M 32 10 L 32 30 M 32 10 L 42 10 M 32 20 L 40 20 M 32 30 L 42 30" stroke="white" stroke-width="2.5" stroke-linecap="square"/>
  
  <!-- A -->
  <path d="M 50 30 L 55 10 L 60 30 M 52 22 L 58 22" stroke="white" stroke-width="2.5" fill="none" stroke-linecap="square"/>
  
  <!-- R -->
  <path d="M 68 30 L 68 10 L 76 10 Q 80 10 80 14 Q 80 18 76 18 L 68 18 M 73 18 L 80 30" stroke="white" stroke-width="2.5" fill="none" stroke-linecap="square"/>
  
  <!-- S -->
  <path d="M 96 12 Q 88 10 88 15 Q 88 20 96 20 Q 104 20 104 25 Q 104 30 96 28" stroke="white" stroke-width="2.5" fill="none" stroke-linecap="square"/>
  
  <!-- E -->
  <path d="M 112 10 L 112 30 M 112 10 L 122 10 M 112 20 L 120 20 M 112 30 L 122 30" stroke="white" stroke-width="2.5" stroke-linecap="square"/>
  
  <!-- A -->
  <path d="M 130 30 L 135 10 L 140 30 M 132 22 L 138 22" stroke="white" stroke-width="2.5" fill="none" stroke-linecap="square"/>
  
  <!-- R -->
  <path d="M 148 30 L 148 10 L 156 10 Q 160 10 160 14 Q 160 18 156 18 L 148 18 M 153 18 L 160 30" stroke="white" stroke-width="2.5" fill="none" stroke-linecap="square"/>
  
  <!-- C -->
  <path d="M 176 10 Q 168 10 168 20 Q 168 30 176 30" stroke="white" stroke-width="2.5" fill="none" stroke-linecap="square"/>
  
  <!-- H -->
  <path d="M 184 10 L 184 30 M 192 10 L 192 30 M 184 20 L 192 20" stroke="white" stroke-width="2.5" stroke-linecap="square"/>
  
  <!-- Accent line underneath -->
  <line x1="8" y1="38" x2="230" y2="38" stroke="white" stroke-width="1" opacity="0.3"/>
</svg>


