<svg width="200" height="24" viewBox="0 0 435 49" fill="none" xmlns="http://www.w3.org/2000/svg">
<path d="M47.296 47.68H16.704C13.568 47.68 10.752 45.44 9.6 41.408L0.32 8.19201C0.128 7.48801 -1.19209e-07 6.784 -1.19209e-07 6.08001C-1.19209e-07 2.49601 3.328 3.8147e-06 6.912 3.8147e-06C9.408 3.8147e-06 11.84 1.21601 12.864 4.80001L21.248 34.56H23.744V6.464C23.744 2.304 26.752 3.8147e-06 30.272 3.8147e-06C33.792 3.8147e-06 36.8 2.304 36.8 6.464V34.56H40.832V6.464C40.832 2.304 43.84 3.8147e-06 47.36 3.8147e-06C50.88 3.8147e-06 53.888 2.304 53.888 6.464V41.152C53.888 45.504 51.712 47.68 47.296 47.68ZM92.624 47.68H66.512C62.16 47.68 60.048 45.44 60.048 41.152V6.91201C60.048 2.56001 62.16 0.384007 66.512 0.384007H92.496C96.592 0.384007 99.024 3.32801 99.024 6.91201C99.024 10.432 96.592 13.504 92.496 13.504H72.976V17.92H92.88C96.4 17.92 98.64 19.968 98.64 24C98.64 27.904 96.4 30.208 92.88 30.208H72.976V34.56H92.624C96.72 34.56 99.216 37.568 99.216 41.152C99.216 44.672 96.72 47.68 92.624 47.68ZM133.606 43.776L132.518 41.28H115.878L114.726 43.776C113.446 46.656 111.526 48.064 109.094 48.064C105.382 48.064 102.053 45.568 102.053 41.856C102.053 41.088 102.117 40.128 102.501 39.232L109.734 23.168C111.014 20.288 113.126 18.816 115.494 18.816C119.078 18.816 122.47 21.504 122.47 25.216C122.47 25.984 122.342 26.88 121.958 27.712L121.253 29.44H127.654L119.078 8.832C118.694 7.936 118.566 7.10401 118.566 6.27201C118.566 2.56001 121.958 3.8147e-06 125.542 3.8147e-06C128.038 3.8147e-06 130.086 1.28001 131.302 4.22401L145.894 39.232C146.278 40.192 146.406 41.088 146.406 41.856C146.406 45.568 142.885 48.064 139.302 48.064C136.806 48.064 134.822 46.72 133.606 43.776ZM164.599 45.696L149.431 31.168C147.383 29.248 145.783 27.136 145.783 24C145.783 20.096 148.215 17.472 153.143 17.472H169.591C171.319 17.472 172.215 16.832 172.215 15.488C172.215 14.144 171.319 13.504 169.591 13.504H151.991C148.023 13.504 145.655 11.328 145.655 6.784C145.655 2.56001 147.639 0.384007 151.927 0.384007H168.887C178.679 0.384007 183.543 5.44001 183.543 15.552C183.543 27.712 176.503 29.632 169.655 29.632H167.351L173.943 35.968C175.671 37.696 176.503 39.104 176.503 41.28C176.503 45.12 174.007 48.064 170.231 48.064C168.311 48.064 166.519 47.296 164.599 45.696ZM210.646 47.68H193.75C189.462 47.68 187.478 45.504 187.478 41.344C187.478 36.8 189.59 34.56 193.814 34.56H211.35C213.142 34.56 213.974 33.92 213.974 32.576C213.974 31.232 213.142 30.592 211.35 30.592H200.662C191.382 30.592 186.774 25.28 186.774 15.488C186.774 5.44001 191.702 0.384007 201.622 0.384007H216.022C220.246 0.384007 222.294 2.49601 222.294 6.72001C222.294 11.2 220.182 13.504 215.958 13.504H200.726C198.998 13.504 198.102 14.144 198.102 15.488C198.102 16.832 198.998 17.472 200.726 17.472H211.478C220.694 17.472 225.366 22.784 225.366 32.576C225.366 42.624 220.502 47.68 210.646 47.68ZM263.062 47.68H236.95C232.597 47.68 230.485 45.44 230.485 41.152V6.91201C230.485 2.56001 232.597 0.384007 236.95 0.384007H262.934C267.03 0.384007 269.462 3.32801 269.462 6.91201C269.462 10.432 267.03 13.504 262.934 13.504H243.413V17.92H263.318C266.838 17.92 269.078 19.968 269.078 24C269.078 27.904 266.838 30.208 263.318 30.208H243.413V34.56H263.062C267.158 34.56 269.654 37.568 269.654 41.152C269.654 44.672 267.158 47.68 263.062 47.68ZM304.043 43.776L302.955 41.28H286.315L285.163 43.776C283.883 46.656 281.963 48.064 279.531 48.064C275.819 48.064 272.491 45.568 272.491 41.856C272.491 41.088 272.555 40.128 272.939 39.232L280.171 23.168C281.451 20.288 283.563 18.816 285.931 18.816C289.515 18.816 292.907 21.504 292.907 25.216C292.907 25.984 292.779 26.88 292.395 27.712L291.691 29.44H298.091L289.515 8.832C289.131 7.936 289.003 7.10401 289.003 6.27201C289.003 2.56001 292.395 3.8147e-06 295.979 3.8147e-06C298.475 3.8147e-06 300.523 1.28001 301.739 4.22401L316.331 39.232C316.715 40.192 316.843 41.088 316.843 41.856C316.843 45.568 313.323 48.064 309.739 48.064C307.243 48.064 305.259 46.72 304.043 43.776ZM335.037 45.696L319.869 31.168C317.82 29.248 316.22 27.136 316.22 24C316.22 20.096 318.653 17.472 323.581 17.472H340.029C341.757 17.472 342.653 16.832 342.653 15.488C342.653 14.144 341.757 13.504 340.029 13.504H322.429C318.461 13.504 316.092 11.328 316.092 6.784C316.092 2.56001 318.076 0.384007 322.365 0.384007H339.325C349.117 0.384007 353.981 5.44001 353.981 15.552C353.981 27.712 346.941 29.632 340.093 29.632H337.789L344.381 35.968C346.108 37.696 346.941 39.104 346.941 41.28C346.941 45.12 344.445 48.064 340.669 48.064C338.749 48.064 336.957 47.296 335.037 45.696ZM385.5 47.68H383.516C373.979 47.68 367.132 44.352 362.588 38.912C359.26 34.816 357.211 29.632 357.211 23.808C357.211 16.32 360.603 9.66401 366.428 5.312C370.588 2.24001 376.092 0.384007 383.9 0.384007H385.692C390.62 0.384007 392.86 3.52 392.86 7.10401C392.86 10.56 390.62 13.632 385.692 13.632H383.836C379.292 13.632 377.116 14.272 375.324 15.36C372.508 17.088 370.524 19.968 370.524 23.936C370.524 26.816 371.611 29.312 373.34 31.168C375.324 33.28 378.204 34.56 383.708 34.56H385.5C390.684 34.56 392.86 37.696 392.86 41.216C392.86 44.736 390.62 47.68 385.5 47.68ZM421.228 41.6V30.592H410.604V41.6C410.604 45.76 407.532 48.064 404.012 48.064C400.492 48.064 397.548 45.76 397.548 41.6V6.464C397.548 2.24001 400.492 3.8147e-06 404.012 3.8147e-06C407.532 3.8147e-06 410.604 2.24001 410.604 6.464V17.472H421.228V6.464C421.228 2.24001 424.236 3.8147e-06 427.692 3.8147e-06C431.276 3.8147e-06 434.22 2.24001 434.22 6.464V41.6C434.22 45.76 431.276 48.064 427.692 48.064C424.236 48.064 421.228 45.76 421.228 41.6Z" fill="white"/>
</svg>
